<svg xmlns="http://www.w3.org/2000/svg" width="24" height="21" viewBox="0 0 24 21" id="iconSvg">
    <defs>
        <linearGradient id="iconGradient" x1="0%" y1="0%" x2="100%" y2="0%" gradientUnits="objectBoundingBox"
            gradientTransform="rotate(-140.47 0.5 0.5)">
            <stop offset="26.02%" stop-color="#FFFFFF" stop-opacity="1" id="stop1">
                <animate attributeName="stop-color" values="#FFFFFF;rgb(255,112,217)" dur="0.3s"
                    begin="hoverArea.mouseover" fill="freeze" />
                <animate attributeName="stop-opacity" values="1;0.6" dur="0.3s" begin="hoverArea.mouseover"
                    fill="freeze" />
                <animate attributeName="stop-color" values="rgb(255,112,217);#FFFFFF" dur="0.3s"
                    begin="hoverArea.mouseout" fill="freeze" />
                <animate attributeName="stop-opacity" values="0.6;1" dur="0.3s" begin="hoverArea.mouseout"
                    fill="freeze" />
            </stop>
            <stop offset="90.57%" stop-color="#FFFFFF" stop-opacity="1" id="stop2">
                <animate attributeName="stop-color" values="#FFFFFF;rgb(235,255,0)" dur="0.3s"
                    begin="hoverArea.mouseover" fill="freeze" />
                <animate attributeName="stop-opacity" values="1;0.6" dur="0.3s" begin="hoverArea.mouseover"
                    fill="freeze" />
                <animate attributeName="stop-color" values="rgb(235,255,0);#FFFFFF" dur="0.3s"
                    begin="hoverArea.mouseout" fill="freeze" />
                <animate attributeName="stop-opacity" values="0.6;1" dur="0.3s" begin="hoverArea.mouseout"
                    fill="freeze" />
            </stop>
        </linearGradient>
    </defs>
    <g id="iconGroup">
        <path id="iconPath" fill-rule="evenodd"
            d="M9.23 18.883c0-1.047-.822-1.888-1.846-1.888s-1.846.84-1.846 1.888.822 1.889 1.846 1.889 1.846-.841 1.846-1.889Zm12.923 0c0-1.047-.822-1.888-1.846-1.888s-1.846.84-1.846 1.888.822 1.889 1.846 1.889 1.846-.841 1.846-1.889Zm1.846-16.05a.94.94 0 0 0-.923-.945H5.755C5.61 1.18 5.595 0 4.615 0H.923A.94.94 0 0 0 0 .944a.94.94 0 0 0 .923.944h2.942L6.418 14.03c-.202.427-.88 1.564-.88 2.02a.94.94 0 0 0 .923.945H21.23a.94.94 0 0 0 .923-.944.94.94 0 0 0-.923-.944H7.96c.144-.295.346-.605.346-.944 0-.34-.13-.708-.187-1.033l15.057-1.8a.947.947 0 0 0 .822-.944V2.833Z"
            clip-rule="evenodd" fill="url(#iconGradient)" />
        <rect id="hoverArea" x="0" y="0" width="24" height="21" fill="transparent" pointer-events="all" />
    </g>
</svg>